<svg xmlns="http://www.w3.org/2000/svg" width="1200" height="630" viewBox="0 0 1200 630">
  <rect width="1200" height="630" fill="#0a0b0d"/>
  <g stroke="#3ef0a0" stroke-opacity="0.06" stroke-width="1">
    <path d="M0 78 H1200 M0 156 H1200 M0 234 H1200 M0 312 H1200 M0 390 H1200 M0 468 H1200 M0 546 H1200"/>
    <path d="M104 0 V630 M208 0 V630 M312 0 V630 M416 0 V630 M520 0 V630 M624 0 V630 M728 0 V630 M832 0 V630 M936 0 V630 M1040 0 V630"/>
  </g>
  <text x="80" y="150" font-family="'JetBrains Mono', monospace" font-weight="700" font-size="30" fill="#79817a"><tspan fill="#3ef0a0">$</tspan> ideeeas --list --validated</text>
  <text x="80" y="300" font-family="'JetBrains Mono', monospace" font-weight="800" font-size="72" fill="#d7ddd2">Validated startup &amp;</text>
  <text x="80" y="390" font-family="'JetBrains Mono', monospace" font-weight="800" font-size="72" fill="#d7ddd2">side-project <tspan fill="#ffb000">ideas</tspan><tspan fill="#ffb000">_</tspan></text>
  <text x="80" y="480" font-family="'JetBrains Mono', monospace" font-weight="500" font-size="30" fill="#79817a">demand · difficulty · money · first_step</text>
</svg>
